<svg width="320" height="160" viewBox="0 0 320 160" fill="none" xmlns="http://www.w3.org/2000/svg">
  <defs>
    <linearGradient id="pycd-bg" x1="30" y1="20" x2="290" y2="140" gradientUnits="userSpaceOnUse">
      <stop stop-color="#F7FBFF"/>
      <stop offset="1" stop-color="#ECF6FF"/>
    </linearGradient>
    <linearGradient id="pycd-core" x1="60" y1="40" x2="140" y2="120" gradientUnits="userSpaceOnUse">
      <stop stop-color="#0EA5E9"/>
      <stop offset="1" stop-color="#0F766E"/>
    </linearGradient>
    <linearGradient id="pycd-flow" x1="74" y1="54" x2="126" y2="106" gradientUnits="userSpaceOnUse">
      <stop stop-color="#F59E0B"/>
      <stop offset="1" stop-color="#F97316"/>
    </linearGradient>
  </defs>

  <rect x="10" y="10" width="300" height="140" rx="18" fill="url(#pycd-bg)"/>
  <rect x="34" y="24" width="120" height="112" rx="18" fill="#FFFFFF" stroke="#E0ECF7" stroke-width="2"/>

  <circle cx="94" cy="80" r="42" fill="url(#pycd-core)"/>
  <path d="M72 72c0-12.15 9.85-22 22-22h16v12h-14c-5.52 0-10 4.48-10 10v24c0 5.52 4.48 10 10 10h14v12h-16c-12.15 0-22-9.85-22-22V72Z" fill="#FFFFFF" opacity="0.9"/>
  <path d="M82 66h14a10 10 0 0 1 10 10v28a10 10 0 0 0 10 10h6c3.31 0 6-2.69 6-6v-12c0-3.31-2.69-6-6-6h-10a10 10 0 0 1-10-10V56" stroke="url(#pycd-flow)" stroke-width="8" stroke-linecap="round" stroke-linejoin="round"/>

  <text x="172" y="80" fill="#0B1F33" font-family="Inter, 'Helvetica Neue', Arial, sans-serif" font-size="34" font-weight="700" letter-spacing="0.5">PyCD</text>
  <text x="172" y="110" fill="#21405A" font-family="Inter, 'Helvetica Neue', Arial, sans-serif" font-size="14" font-weight="500" letter-spacing="0.2">Python for Catalysis &amp; Discovery</text>
</svg>
